<mxfile host="app.diagrams.net" modified="2022-05-21T00:19:34.117Z" agent="5.0 (Windows)" etag="bh01I5wl_9uMydjRwgt5" version="18.0.8" type="github">
  <diagram id="12oCROdWaPfmY8l000qh" name="Page-1">
    <mxGraphModel dx="2462" dy="1062" grid="1" gridSize="10" guides="1" tooltips="1" connect="1" arrows="1" fold="1" page="1" pageScale="1" pageWidth="827" pageHeight="1169" math="0" shadow="0">
      <root>
        <mxCell id="0" />
        <mxCell id="1" parent="0" />
        <mxCell id="PWxaWAXkfzLJMrjovWpR-1" value="" style="rounded=0;whiteSpace=wrap;html=1;fillColor=none;" vertex="1" parent="1">
          <mxGeometry x="40" y="40" width="1520" height="900" as="geometry" />
        </mxCell>
        <mxCell id="PWxaWAXkfzLJMrjovWpR-2" value="" style="rounded=0;whiteSpace=wrap;html=1;fillColor=#000000;" vertex="1" parent="1">
          <mxGeometry x="40" y="740" width="1520" height="200" as="geometry" />
        </mxCell>
        <mxCell id="PWxaWAXkfzLJMrjovWpR-3" value="" style="rounded=0;whiteSpace=wrap;html=1;fillColor=#FFFFFF;" vertex="1" parent="1">
          <mxGeometry x="40" y="40" width="1520" height="90" as="geometry" />
        </mxCell>
        <mxCell id="PWxaWAXkfzLJMrjovWpR-4" value="&lt;b&gt;&lt;font style=&quot;font-size: 24px;&quot;&gt;BLACK DIAMONT&lt;/font&gt;&lt;/b&gt;" style="text;html=1;strokeColor=none;fillColor=none;align=center;verticalAlign=middle;whiteSpace=wrap;rounded=0;" vertex="1" parent="1">
          <mxGeometry x="60" y="70" width="240" height="30" as="geometry" />
        </mxCell>
        <mxCell id="PWxaWAXkfzLJMrjovWpR-5" value="&lt;span style=&quot;background-color: rgb(0, 0, 0);&quot;&gt;&lt;font style=&quot;font-size: 36px;&quot; color=&quot;#FFFFFF&quot;&gt;XXXXXXX&lt;/font&gt;&lt;/span&gt;" style="text;html=1;strokeColor=none;fillColor=none;align=center;verticalAlign=middle;whiteSpace=wrap;rounded=0;" vertex="1" parent="1">
          <mxGeometry x="90" y="760" width="240" height="30" as="geometry" />
        </mxCell>
        <mxCell id="PWxaWAXkfzLJMrjovWpR-6" value="Icon" style="icon;html=1;image=img/clipart/Gear_128x128.png;fontSize=14;" vertex="1" parent="1">
          <mxGeometry x="1230" y="70" width="30" height="10" as="geometry" />
        </mxCell>
        <mxCell id="PWxaWAXkfzLJMrjovWpR-7" value="Icon" style="icon;html=1;image=img/clipart/Gear_128x128.png;fontSize=14;arcSize=50;" vertex="1" parent="1">
          <mxGeometry x="1370" y="70" width="10" height="10" as="geometry" />
        </mxCell>
        <mxCell id="PWxaWAXkfzLJMrjovWpR-8" value="Icon" style="icon;html=1;image=img/clipart/Gear_128x128.png;fontSize=14;" vertex="1" parent="1">
          <mxGeometry x="1490" y="70" width="10" height="10" as="geometry" />
        </mxCell>
        <mxCell id="PWxaWAXkfzLJMrjovWpR-9" value="Busqueda" style="text;html=1;strokeColor=none;fillColor=none;align=center;verticalAlign=middle;whiteSpace=wrap;rounded=0;fontSize=15;" vertex="1" parent="1">
          <mxGeometry x="1140" y="60" width="60" height="30" as="geometry" />
        </mxCell>
        <mxCell id="PWxaWAXkfzLJMrjovWpR-10" value="Mi cuenta" style="text;html=1;strokeColor=none;fillColor=none;align=center;verticalAlign=middle;whiteSpace=wrap;rounded=0;fontSize=15;" vertex="1" parent="1">
          <mxGeometry x="1280" y="60" width="70" height="30" as="geometry" />
        </mxCell>
        <mxCell id="PWxaWAXkfzLJMrjovWpR-11" value="Carrito" style="text;html=1;strokeColor=none;fillColor=none;align=center;verticalAlign=middle;whiteSpace=wrap;rounded=0;fontSize=15;" vertex="1" parent="1">
          <mxGeometry x="1410" y="60" width="60" height="30" as="geometry" />
        </mxCell>
        <mxCell id="PWxaWAXkfzLJMrjovWpR-12" value="Todos" style="text;strokeColor=none;fillColor=none;html=1;fontSize=24;fontStyle=1;verticalAlign=middle;align=center;" vertex="1" parent="1">
          <mxGeometry x="390" y="80" width="100" height="40" as="geometry" />
        </mxCell>
        <mxCell id="PWxaWAXkfzLJMrjovWpR-13" value="Camisetas" style="text;strokeColor=none;fillColor=none;html=1;fontSize=24;fontStyle=1;verticalAlign=middle;align=center;" vertex="1" parent="1">
          <mxGeometry x="510.5" y="80" width="100" height="40" as="geometry" />
        </mxCell>
        <mxCell id="PWxaWAXkfzLJMrjovWpR-14" value="Sudaderas" style="text;strokeColor=none;fillColor=none;html=1;fontSize=24;fontStyle=1;verticalAlign=middle;align=center;" vertex="1" parent="1">
          <mxGeometry x="654.5" y="80" width="100" height="40" as="geometry" />
        </mxCell>
        <mxCell id="PWxaWAXkfzLJMrjovWpR-15" value="Jeans" style="text;strokeColor=none;fillColor=none;html=1;fontSize=24;fontStyle=1;verticalAlign=middle;align=center;" vertex="1" parent="1">
          <mxGeometry x="770" y="80" width="100" height="40" as="geometry" />
        </mxCell>
        <mxCell id="PWxaWAXkfzLJMrjovWpR-16" value="Gorras" style="text;strokeColor=none;fillColor=none;html=1;fontSize=24;fontStyle=1;verticalAlign=middle;align=center;" vertex="1" parent="1">
          <mxGeometry x="880" y="80" width="100" height="40" as="geometry" />
        </mxCell>
        <mxCell id="PWxaWAXkfzLJMrjovWpR-17" value="&lt;font color=&quot;#ff1212&quot;&gt;Sale&lt;/font&gt;" style="text;strokeColor=none;fillColor=none;html=1;fontSize=24;fontStyle=1;verticalAlign=middle;align=center;" vertex="1" parent="1">
          <mxGeometry x="980" y="80" width="100" height="40" as="geometry" />
        </mxCell>
        <mxCell id="PWxaWAXkfzLJMrjovWpR-18" value="" style="rounded=0;whiteSpace=wrap;html=1;" vertex="1" parent="1">
          <mxGeometry x="90" y="160" width="360" height="480" as="geometry" />
        </mxCell>
        <mxCell id="PWxaWAXkfzLJMrjovWpR-19" value="" style="rounded=0;whiteSpace=wrap;html=1;" vertex="1" parent="1">
          <mxGeometry x="470" y="160" width="360" height="480" as="geometry" />
        </mxCell>
        <mxCell id="PWxaWAXkfzLJMrjovWpR-20" value="" style="rounded=0;whiteSpace=wrap;html=1;" vertex="1" parent="1">
          <mxGeometry x="900" y="330" width="360" height="40" as="geometry" />
        </mxCell>
        <mxCell id="PWxaWAXkfzLJMrjovWpR-21" value="" style="rounded=0;whiteSpace=wrap;html=1;" vertex="1" parent="1">
          <mxGeometry x="900" y="500" width="170" height="50" as="geometry" />
        </mxCell>
        <mxCell id="PWxaWAXkfzLJMrjovWpR-22" value="IMAGEN" style="text;html=1;strokeColor=none;fillColor=none;align=center;verticalAlign=middle;whiteSpace=wrap;rounded=0;" vertex="1" parent="1">
          <mxGeometry x="230" y="370" width="60" height="30" as="geometry" />
        </mxCell>
        <mxCell id="PWxaWAXkfzLJMrjovWpR-23" value="IMAGEN" style="text;html=1;strokeColor=none;fillColor=none;align=center;verticalAlign=middle;whiteSpace=wrap;rounded=0;" vertex="1" parent="1">
          <mxGeometry x="610.5" y="365" width="60" height="30" as="geometry" />
        </mxCell>
        <mxCell id="PWxaWAXkfzLJMrjovWpR-24" value="PRECIO" style="text;html=1;strokeColor=none;fillColor=none;align=center;verticalAlign=middle;whiteSpace=wrap;rounded=0;" vertex="1" parent="1">
          <mxGeometry x="920" y="280" width="60" height="30" as="geometry" />
        </mxCell>
        <mxCell id="PWxaWAXkfzLJMrjovWpR-25" value="NOMBRE COMPLETO DE LA PRENDA" style="text;html=1;strokeColor=none;fillColor=none;align=center;verticalAlign=middle;whiteSpace=wrap;rounded=0;" vertex="1" parent="1">
          <mxGeometry x="915" y="230" width="230" height="30" as="geometry" />
        </mxCell>
        <mxCell id="PWxaWAXkfzLJMrjovWpR-26" value="AÃ‘ADIR AL CARRITO" style="text;html=1;strokeColor=none;fillColor=none;align=center;verticalAlign=middle;whiteSpace=wrap;rounded=0;" vertex="1" parent="1">
          <mxGeometry x="910" y="510" width="70" height="30" as="geometry" />
        </mxCell>
        <mxCell id="PWxaWAXkfzLJMrjovWpR-27" value="SELECCIONE SU TALLA" style="text;html=1;strokeColor=none;fillColor=none;align=center;verticalAlign=middle;whiteSpace=wrap;rounded=0;" vertex="1" parent="1">
          <mxGeometry x="920" y="335" width="320" height="30" as="geometry" />
        </mxCell>
        <mxCell id="PWxaWAXkfzLJMrjovWpR-28" value="Icon" style="icon;html=1;image=img/clipart/Gear_128x128.png;fontSize=14;" vertex="1" parent="1">
          <mxGeometry x="1015" y="520" width="30" height="10" as="geometry" />
        </mxCell>
        <mxCell id="PWxaWAXkfzLJMrjovWpR-29" value="" style="rounded=0;whiteSpace=wrap;html=1;" vertex="1" parent="1">
          <mxGeometry x="900" y="400" width="145" height="40" as="geometry" />
        </mxCell>
        <mxCell id="PWxaWAXkfzLJMrjovWpR-30" value="COLORES DISPONIBLES" style="text;html=1;strokeColor=none;fillColor=none;align=center;verticalAlign=middle;whiteSpace=wrap;rounded=0;" vertex="1" parent="1">
          <mxGeometry x="910" y="405" width="130" height="30" as="geometry" />
        </mxCell>
        <mxCell id="PWxaWAXkfzLJMrjovWpR-31" value="&lt;font style=&quot;font-size: 36px;&quot; color=&quot;#FFFFFF&quot;&gt;ENTREGA Y PAGO DEL PRODUCTO&lt;/font&gt;" style="text;html=1;strokeColor=none;fillColor=none;align=center;verticalAlign=middle;whiteSpace=wrap;rounded=0;" vertex="1" parent="1">
          <mxGeometry x="490" y="780" width="480" height="30" as="geometry" />
        </mxCell>
        <mxCell id="PWxaWAXkfzLJMrjovWpR-32" value="&lt;font style=&quot;font-size: 36px;&quot; color=&quot;#FFFFFF&quot;&gt;ORIGEN DEL PRODUCTO&lt;/font&gt;" style="text;html=1;strokeColor=none;fillColor=none;align=center;verticalAlign=middle;whiteSpace=wrap;rounded=0;" vertex="1" parent="1">
          <mxGeometry x="1080" y="760" width="460" height="30" as="geometry" />
        </mxCell>
      </root>
    </mxGraphModel>
  </diagram>
</mxfile>
